# xmcd
#
# Track frame offsets:
#	150
#	12075
#	25350
#	37575
#	51450
#	60075
#	73425
#	85350
#	98075
#	111800
#	122850
#	137550
#	149650
#	160175
#	174125
#	185250
#
# Disc length: 2616
#
# Revision: 5
# Processed by: cddbd v1.5.1PL0 Copyright (c) Steve Scherf et al.
# Submitted via: xmcd 2.6 PL0
# Normalized: r3:TSWAP
#
DISCID=d40a3610
DTITLE=Various Artist - Country And Western Classics Vol 1 CD 2
DYEAR=1900
DGENRE=
TTITLE0=Tammy Wynette - Stand By Your Man
TTITLE1=Dave Dudley - Where Did Everybody Go
TTITLE2=Dean Martin - Little Ole Winedrinker
TTITLE3=Billy Jo Spears - Mr. Walker It's All Over
TTITLE4=Roger Miller - You're A Part Of Me
TTITLE5=David Houston - Almost Persuaded
TTITLE6=Guy Mitchell - Heartaches By The Number
TTITLE7=The Browns - The Three Bells
TTITLE8=Nancy Sinatra - So Long Babe
TTITLE9=Kenny Price - Happy Tracks
TTITLE10=Johnny Horton - Sink The Bismarck
TTITLE11=Bobby Helms - Fraulein
TTITLE12=Orion - Lover Please
TTITLE13=Roy Drusky - Guantanamera
TTITLE14=Faron Young - The Yellow Bandanna
TTITLE15=Dean Martin - Send Me The Pillow You Dream On
EXTD=
EXTT0=
EXTT1=
EXTT2=
EXTT3=
EXTT4=
EXTT5=
EXTT6=
EXTT7=
EXTT8=
EXTT9=
EXTT10=
EXTT11=
EXTT12=
EXTT13=
EXTT14=
EXTT15=
PLAYORDER=
